<svg width="337" height="333" viewBox="0 0 337 333" fill="none" xmlns="http://www.w3.org/2000/svg">
<circle cx="168.5" cy="168.5" r="160.5" fill="#0C4E8C"/>
<ellipse cx="168" cy="168.5" rx="80" ry="79.5" fill="white"/>
<line x1="164.464" y1="165.464" x2="325.464" y2="4.46447" stroke="white" stroke-width="10"/>
<line x1="171.525" y1="165.453" x2="332.525" y2="325.453" stroke="white" stroke-width="10"/>
<line x1="171.491" y1="172.58" x2="11.4905" y2="328.58" stroke="white" stroke-width="10"/>
<line x1="164.453" y1="172.525" x2="4.45348" y2="11.5245" stroke="white" stroke-width="10"/>
<ellipse cx="168" cy="169" rx="54" ry="53" fill="#0C4E8C"/>
<path d="M193.619 161.356L170.08 137.796C170.012 137.728 169.941 137.663 169.866 137.602C169.792 137.541 169.715 137.483 169.635 137.43C169.554 137.376 169.472 137.326 169.387 137.281C169.302 137.236 169.215 137.194 169.126 137.158C169.037 137.121 168.946 137.088 168.854 137.06C168.762 137.032 168.668 137.009 168.574 136.99C168.48 136.971 168.384 136.957 168.289 136.948C168.192 136.939 168.096 136.933 168 136.933C167.904 136.933 167.808 136.939 167.711 136.948C167.616 136.957 167.52 136.971 167.426 136.99C167.332 137.009 167.238 137.032 167.146 137.06C167.054 137.088 166.963 137.121 166.874 137.158C166.785 137.194 166.698 137.236 166.613 137.281C166.528 137.326 166.446 137.376 166.365 137.43C166.285 137.483 166.208 137.541 166.134 137.602C166.059 137.663 165.988 137.728 165.92 137.796L142.381 161.356C142.315 161.425 142.252 161.497 142.193 161.571C142.134 161.646 142.079 161.724 142.027 161.803C141.975 161.883 141.927 161.966 141.884 162.051C141.84 162.135 141.8 162.222 141.765 162.311C141.73 162.4 141.699 162.489 141.672 162.581C141.645 162.673 141.623 162.765 141.606 162.859C141.588 162.953 141.576 163.047 141.567 163.142C141.558 163.237 141.555 163.333 141.556 163.428C141.556 163.523 141.562 163.618 141.572 163.713C141.582 163.808 141.596 163.902 141.616 163.996C141.635 164.089 141.659 164.181 141.687 164.272C141.715 164.363 141.747 164.453 141.784 164.541C141.821 164.629 141.862 164.715 141.907 164.799C141.953 164.883 142.002 164.964 142.055 165.044C142.108 165.123 142.165 165.2 142.225 165.273C142.286 165.347 142.35 165.417 142.417 165.485C142.485 165.552 142.555 165.616 142.629 165.677C142.702 165.737 142.778 165.794 142.858 165.847C142.937 165.901 143.019 165.95 143.102 165.995C143.186 166.04 143.272 166.081 143.36 166.118C143.448 166.155 143.537 166.188 143.628 166.215C143.719 166.244 143.811 166.268 143.905 166.287C143.998 166.306 144.092 166.321 144.187 166.331C144.282 166.341 144.377 166.346 144.472 166.347C144.567 166.348 144.662 166.344 144.757 166.336C144.852 166.327 144.947 166.314 145.041 166.297C145.134 166.279 145.227 166.257 145.318 166.23C145.41 166.204 145.5 166.173 145.588 166.137C145.677 166.102 145.763 166.062 145.848 166.019C145.933 165.975 146.015 165.927 146.095 165.876C146.175 165.824 146.252 165.768 146.327 165.709C146.402 165.649 146.473 165.587 146.542 165.521L147.404 164.657V181.868C147.404 182.133 147.417 182.397 147.444 182.66C147.469 182.923 147.509 183.184 147.56 183.443C147.612 183.703 147.677 183.959 147.753 184.211C147.83 184.465 147.919 184.714 148.02 184.957C148.121 185.201 148.234 185.44 148.359 185.673C148.484 185.906 148.619 186.133 148.766 186.353C148.913 186.573 149.071 186.785 149.238 186.989C149.406 187.194 149.583 187.389 149.77 187.576C149.956 187.763 150.152 187.94 150.356 188.108C150.56 188.276 150.772 188.433 150.991 188.58C151.211 188.727 151.437 188.863 151.67 188.988C151.903 189.112 152.142 189.225 152.386 189.327C152.63 189.428 152.878 189.517 153.131 189.594C153.383 189.671 153.64 189.735 153.898 189.787C154.157 189.839 154.418 189.878 154.681 189.904C154.944 189.93 155.208 189.943 155.472 189.944H180.528C180.792 189.943 181.056 189.93 181.319 189.904C181.582 189.878 181.843 189.839 182.102 189.787C182.36 189.735 182.617 189.671 182.869 189.594C183.122 189.517 183.37 189.428 183.614 189.327C183.858 189.225 184.097 189.112 184.33 188.988C184.563 188.863 184.789 188.727 185.009 188.58C185.228 188.433 185.44 188.276 185.644 188.108C185.848 187.94 186.044 187.763 186.23 187.576C186.418 187.389 186.594 187.194 186.762 186.989C186.929 186.785 187.087 186.573 187.234 186.353C187.381 186.133 187.516 185.906 187.641 185.673C187.766 185.44 187.879 185.201 187.98 184.957C188.081 184.714 188.17 184.465 188.247 184.211C188.323 183.959 188.388 183.703 188.44 183.443C188.491 183.184 188.531 182.923 188.556 182.66C188.583 182.397 188.596 182.133 188.596 181.868V164.657L189.458 165.521C189.527 165.587 189.598 165.649 189.673 165.709C189.748 165.768 189.825 165.824 189.905 165.876C189.985 165.927 190.067 165.975 190.152 166.019C190.237 166.062 190.323 166.102 190.412 166.137C190.5 166.173 190.59 166.204 190.682 166.23C190.773 166.257 190.866 166.279 190.959 166.297C191.053 166.314 191.148 166.327 191.243 166.336C191.338 166.344 191.433 166.348 191.528 166.347C191.623 166.346 191.718 166.341 191.813 166.331C191.908 166.321 192.002 166.306 192.095 166.287C192.189 166.268 192.28 166.244 192.371 166.215C192.463 166.188 192.552 166.155 192.64 166.118C192.728 166.081 192.814 166.04 192.898 165.995C192.981 165.95 193.063 165.901 193.142 165.847C193.222 165.794 193.298 165.737 193.371 165.677C193.445 165.616 193.515 165.552 193.583 165.485C193.65 165.417 193.714 165.346 193.775 165.273C193.835 165.199 193.892 165.123 193.945 165.044C193.998 164.964 194.047 164.883 194.093 164.799C194.138 164.715 194.179 164.629 194.216 164.541C194.253 164.453 194.285 164.363 194.313 164.272C194.341 164.181 194.365 164.089 194.384 163.996C194.404 163.902 194.418 163.808 194.428 163.713C194.438 163.618 194.444 163.523 194.444 163.428C194.445 163.333 194.441 163.237 194.433 163.142C194.424 163.047 194.412 162.953 194.394 162.859C194.377 162.765 194.355 162.673 194.328 162.581C194.301 162.489 194.27 162.4 194.235 162.311C194.2 162.222 194.16 162.135 194.116 162.051C194.073 161.966 194.025 161.883 193.973 161.803C193.922 161.724 193.866 161.646 193.807 161.571C193.748 161.497 193.685 161.425 193.619 161.356Z" fill="white"/>
<path d="M158.585 162.365L161.508 167.234H161.612L164.551 162.365H167.293L163.2 169.013L167.358 175.659H164.569L161.612 170.822H161.508L158.552 175.659H155.775L159.972 169.013L155.827 162.365H158.585Z" fill="#0C4E8C"/>
<path d="M168.273 162.365H170.989L174.238 168.245H174.367L177.616 162.365H180.333L175.501 170.701V175.659H173.102V170.701L168.273 162.365Z" fill="#0C4E8C"/>
<path d="M273.071 160.545L276.594 166.989L280.173 160.545H284.526L279.264 169.273L284.616 178H280.287L276.594 171.716L272.935 178H268.571L273.889 169.273L268.707 160.545H273.071ZM293.852 176.625V160.898H297.42V176.625H293.852ZM287.773 170.545V166.977H303.5V170.545H287.773Z" fill="white"/>
<path d="M38.3835 160.545L41.9062 166.989L45.4858 160.545H49.8381L44.5767 169.273L49.929 178H45.5994L41.9062 171.716L38.2472 178H33.8835L39.2017 169.273L34.0199 160.545H38.3835ZM62.8807 166.614V170H52.4034V166.614H62.8807Z" fill="white"/>
<path d="M147.423 38.7273H152.185L157.878 49.0227H158.105L163.798 38.7273H168.56L160.094 53.3182V62H155.889V53.3182L147.423 38.7273ZM176.727 58.2727V42.5455H180.295V58.2727H176.727ZM170.648 52.1932V48.625H186.375V52.1932H170.648Z" fill="white"/>
<path d="M150.736 275.727H155.497L161.19 286.023H161.418L167.111 275.727H171.872L163.406 290.318V299H159.202V290.318L150.736 275.727ZM183.756 285.67V289.057H173.278V285.67H183.756Z" fill="white"/>
</svg>
